<?xml version="1.0" standalone="no"?>
<!DOCTYPE svg PUBLIC "-//W3C//DTD SVG 1.1//EN" "http://www.w3.org/Graphics/SVG/1.1/DTD/svg11.dtd" >
<!--
2013-9-30: Created.
-->
<svg>
<metadata>
Created by iconfont
</metadata>
<defs>

<font id="iconfont" horiz-adv-x="1024" >
  <font-face
    font-family="iconfont"
    font-weight="500"
    font-stretch="normal"
    units-per-em="1024"
    ascent="896"
    descent="-128"
  />
    <missing-glyph />
    
    <glyph glyph-name="7tianwuliyoutuihuo" unicode="&#58956;" d="M1016.010752 629.500672 823.296 675.465984l-9.75872-194.332672 96.571392 70.764544C957.906944 476.617472 983.04 390.097664 983.04 300c0-259.731456-211.308544-471.04-471.04-471.04S40.96 40.268544 40.96 300 252.268544 771.04 512 771.04c41.95328 0 83.552256-5.513216 123.639808-16.388096 10.924032-2.963456 22.167552 3.487744 25.12896 14.403584s-3.487744 22.165504-14.403584 25.12896C602.781696 806.005504 557.574144 812 512 812 375.240704 812 246.665216 758.743808 149.960704 662.039296S0 436.759296 0 300s53.256192-265.334784 149.960704-362.039296S375.240704-212 512-212s265.336832 53.256192 362.039296 149.960704C970.74176 34.665216 1024 163.240704 1024 300c0 98.859008-27.865088 193.76128-80.797696 276.148224L1016.010752 629.500672zM508.229632 78.459648 652.529664 443.239168 652.529664 481.200896 374.58944 481.200896 374.58944 412.039936 563.869696 412.039936 419.569664 78.459648Z"  horiz-adv-x="1024" />

    
    <glyph glyph-name="iconfontxiaoxi3" unicode="&#58968;" d="M733.781804 98.42462 733.781804 714.130251l-0.502298 2.809085c-4.912888 27.483618-19.753044 40.089235-31.336863 45.824378-25.474425 12.612498-51.435667 0.579707-56.381239-1.957586l-1.861255-0.956431L357.940707 562.501599c-3.853246 0.500578-7.770138 0.789571-11.752399 0.789571l-42.619648 0c-51.666174 0-93.700954-43.474587-93.700954-96.914286l0-171.309448c0-53.437979 42.03478-96.914286 93.700954-96.914286l42.619648 0c9.132536 0 17.951996 1.38304 26.303561 3.915173l246.774573-183.987314c1.106088-0.823975 2.227658-1.685795 3.368149-2.559656 9.748367-7.467383 27.261712-20.888375 48.980943-20.886655 7.728854 0.00172 15.994409 1.701277 24.626367 5.975971 40.004946 19.80121 38.542777 64.436931 37.756646 88.416503C733.886736 92.448649 733.781804 95.677463 733.781804 98.42462zM375.546943 295.069157c0-17.960597-13.169843-32.571966-29.358635-32.571966l-42.619648 0c-16.188792 0-29.358635 14.611369-29.358635 32.571966l0 171.309448c0 17.960597 13.169843 32.571966 29.358635 32.571966l42.619648 0c16.188792 0 29.358635-14.611369 29.358635-32.571966L375.546943 295.069157zM668.842575 61.368096c-2.397957 1.64623-5.117592 3.727671-7.078618 5.231125-1.355517 1.039-2.690391 2.059078-4.021825 3.053353L425.179841 243.041742c9.294235 15.043139 14.707701 32.888483 14.707701 52.025695l0 171.309448c0 22.816718-7.680688 43.801425-20.485849 60.377261L669.441204 699.432872l0-601.006531c0-3.80164 0.127295-7.716812 0.252869-11.50469C669.893616 80.811504 670.313345 67.958178 668.842575 61.368096zM825.702352 173.604193c2.726515-0.163419 5.459911-0.068808 8.186427 0.208144 38.618465 3.928934 81.257035 24.595404 109.155221 51.11055 26.98476 25.648166 50.534283 58.184008 61.479909 94.050155 6.196156 20.301787 9.483457 43.07034 9.483457 64.318237 0 40.237172-10.952506 78.155517-30.280661 110.36108-0.151378 0.271791-0.273512 0.552184-0.43521 0.820535-34.581158 58.099718-89.586238 84.183094-91.910227 85.263379-15.30633 7.125064-33.480231 0.490257-40.605295-14.812633-7.121623-15.302889-0.490257-33.481951 14.810913-40.603575 0.068808-0.032684 1.346916-0.655396 3.505765-1.856095 16.08386-9.872221 30.115522-20.879774 41.904045-33.082865 27.76401-28.741083 42.731461-66.176052 42.731461-106.091547 0-69.029862-46.206263-127.258594-109.375407-145.47034-7.164628-1.436366-13.168123-2.189813-16.710012-2.532133-17.20887-1.567101-29.914259-16.763338-28.397043-33.98941 1.059643-12.02591 8.771294-21.865448 19.188819-26.212391C820.751619 174.123693 823.214944 173.75385 825.702352 173.604193zM892.908803 824.568741c-7.854428 1.580863-15.884317 2.881333-23.946889 3.780997-6.949604 0.77581-13.92329 1.254025-20.836769 1.358957-0.154818 0.00172-0.309636 0.00344-0.464454 0.00344-17.109098 0-31.104636-13.746109-31.354065-30.911974-0.184061-12.662384 7.162908-23.681978 17.895229-28.790969 4.979976-2.370434 10.520736-3.37159 15.923881-4.245451 10.603306-1.713318 21.314985-3.037871 31.794436-5.432388 26.439457-6.027577 52.830749-14.017901 77.623975-25.0805 133.184679-59.425991 226.020374-192.975353 226.020374-348.238785 0-163.348367-102.7492-302.679317-247.139255-356.92923-28.97675-10.887139-58.820481-16.789141-89.214675-22.027147-2.934659-0.505738-5.865878-1.076845-8.816019-1.494853-19.553501-2.77124-30.555893-15.646929-29.66827-32.933208 0.696681-13.568929 9.920387-24.681414 22.214649-28.412525 10.088967-3.061954 22.992178-1.690956 33.335734-0.254589 8.623357 1.197258 17.167585 2.638785 25.625803 4.32114 204.591856 40.682704 358.804247 221.181454 358.804247 437.726972C1250.706733 603.203225 1097.001801 783.492111 892.908803 824.568741z"  horiz-adv-x="1449" />

    
    <glyph glyph-name="xiaoxi1" unicode="&#58920;" d="M992 384c0 265.088-214.912 480-480 480-265.151 0-480-214.912-480-480 0-265.152 214.849-480 480-480 265.088 0 480 214.848 480 480zM928 384c0-229.376-186.624-416-416-416s-416 186.624-416 416 186.624 416 416 416 416-186.624 416-416zM637.59 503.144c-2.191 5.836-6.6 10.576-12.209 13.14-4.593 2.578-10.030 3.696-15.614 2.814-13.282-2.091-22.343-14.67-20.226-28.092 1.197-7.602 5.725-13.839 11.833-17.447 23.449-25.090 37.883-58.696 37.883-95.76 0-40.552-17.292-76.979-44.788-102.63-5.099-4.399-8.33-10.899-8.33-18.159 0-13.245 10.738-23.981 23.985-23.981 6.779 0 12.895 2.816 17.259 7.343 4.655 2.701 8.285 6.976 10.207 12.11 30.049 33.186 48.518 77.021 48.518 125.318-0 48.308-18.469 92.133-48.518 125.344v0zM721.494 590.619c-3.987 8.122-12.339 13.715-22 13.715-13.526 0-24.492-10.967-24.492-24.497 0-8.881 4.721-16.657 11.795-20.951 41.513-43.44 67.147-102.169 67.147-167 0-72.588-32.122-137.542-82.757-181.879l0.092-0.11c-7.945-3.942-13.409-12.136-13.409-21.604 0-13.316 10.794-24.108 24.111-24.108 7.908 0 14.928 3.808 19.323 9.69 0.214 0.251 0.426 0.505 0.628 0.763l0.063-0.060c60.521 52.969 98.939 130.568 98.939 217.309 0.004 77.050-30.288 146.938-79.44 198.732v0zM463.773 632.249l-120.444-123.229h-73.409c-31.406 0-46.854-16.908-46.854-46.864v-156.158c0-29.465 15.939-46.867 46.854-46.867h73.409l120.445-123.217c34.608-32.501 87.272-18.179 87.272 35.782v424.78c-0.001 54.518-53.322 67.59-87.273 35.773v0zM504.19 195.699c0-35.475-15.725-15.584-31.859 0.338-28.125 27.758-70.616 72.61-105.546 109.961h-65.63c-23.748 0-31.235 7.964-31.235 31.233v93.699c0 22.78 7.978 31.227 31.235 31.227h66.361c34.748 37.55 76.825 82.322 104.933 109.828 15.954 15.61 31.741 35.949 31.741-0.985 0-76.303 0-300.538 0-375.301v0z"  horiz-adv-x="1024" />

    
    <glyph glyph-name="editor2" unicode="&#58926;" d="M941.214017 122.16869c-1.203408 6.122441-4.175089 11.967566-8.92016 16.709567L659.77309 410.430976c11.047614 28.091802 18.101263 58.189284 20.465101 89.596598 0.49528 2.258437 0.76441 4.601808 0.76441 7.008624l-0.204661 2.164293c0.215918 4.736884 0.331551 9.500375 0.331551 14.291494 0 170.725336-138.406257 309.12443-309.133639 309.12443-44.024679 0-85.889159-9.219989-123.793444-25.809829-6.462179-0.883113-12.706393-3.711532-17.797341-8.479115-3.634784-1.87572-7.231705-3.814886-10.780531-5.828752l3.723811-3.723811c-5.885034-12.125155-3.801583-27.143197 6.268774-37.214577l145.882532-146.790204-83.827197-84.479043L145.461441 667.402605c-10.56666 10.580986-26.610054 12.347213-39.025828 5.316076l-3.412726 3.195785c-2.139733-3.767813-4.195555-7.588839-6.178723-11.452843-2.946099-3.748371-4.958942-7.989975-6.025227-12.415774-17.929348-39.147602-27.940352-82.678024-27.940352-128.553864 0-170.728406 138.389884-309.125453 309.117266-309.125453 39.10053 0 76.498278 7.272637 110.931508 20.520359l249.061472-248.176312c6.505158-8.368598 14.052041-15.885805 22.444175-22.363334l1.667989-1.661849c3.611248-3.616364 7.865131-6.200212 12.392238-7.758708 18.34174-10.55438 39.61116-16.59291 62.291718-16.59291 69.076238 0 125.074623 55.999408 125.074623 125.074623C955.859575 84.648145 950.556802 104.648664 941.214017 122.16869zM830.850443 2.560568c-11.418051 0-22.098297 3.15383-31.226189 8.629541l-20.844747 20.771069c-0.813528 1.345648-1.568728 2.729158-2.278903 4.140297l-65.075111 64.712861c-0.13917-0.441045-0.287549-0.876973-0.420579-1.320065L543.574624 266.331044c0.097214 0.064468 0.195451 0.12689 0.292666 0.192382l-47.081295 47.079248c-36.735669-21.945825-79.68383-34.56933-125.585253-34.56933-135.449925 0-245.2691 109.810988-245.2691 245.260913 0 21.555945 2.785439 42.460044 8.010441 62.376653l127.742383-128.536468c0.877997-0.877997 1.796926-1.689479 2.745531-2.445702 1.152243-1.708921 2.479471-3.335978 3.991917-4.847401 12.712533-12.712533 33.305547-12.712533 46.01808 0L444.138938 581.539029c12.712533 12.71151 12.712533 33.313733 0 46.026266-0.804319 0.804319-1.641383 1.556449-2.50403 2.25946-1.098008 1.585101-2.344395 3.098571-3.755534 4.50971l-126.9616 127.743406c19.287275 4.879124 39.480176 7.483438 60.283991 7.483438 135.450948 0 245.252727-109.812011 245.252727-245.2691 0-2.515287-0.051165-5.01727-0.12689-7.514137-0.455371-2.170432-0.698918-4.418636-0.698918-6.724145l0.245593-2.584871c-1.771343-26.097378-7.619538-51.076282-16.919345-74.30124l4.071735-2.801812c-1.802042-1.191128-3.511987-2.579755-5.098111-4.166903-12.713556-12.712533-12.713556-33.314757 0-46.027289l155.519006-154.962328 0.272199 0.291642 28.646434-29.106922 13.047154-13.000082c-0.064468-0.019443-0.127913-0.040932-0.192382-0.060375l66.682725-67.75515c1.577938-0.941442 3.115967-1.942235 4.597715-3.01773l13.446243-13.398148c7.341199-10.045797 11.685133-22.420639 11.685133-35.815717C891.630738 29.782559 864.410793 2.560568 830.850443 2.560568z"  horiz-adv-x="1024" />

    
    <glyph glyph-name="sousuo" unicode="&#59052;" d="M965.844997 14.134161 754.477009 231.321692c50.566676 69.379137 80.548524 155.630546 80.548524 249.027703C835.025533 709.915861 653.937175 896 430.548408 896 207.09722 896 26.008862 709.915861 26.008862 480.349395c0-229.622748 181.089381-415.653675 404.540569-415.653675 73.90522 0 143.193283 20.342304 202.813149 55.973826l218.011292-224.12657c31.629371-32.454156 82.899058-32.454156 114.472148 0C997.480508-71.001845 997.480508-18.321018 965.844997 14.134161zM430.548408 175.526945c-163.835416 0-296.68205 136.462998-296.68205 304.82245 0 168.298054 132.846634 304.823474 296.68205 304.823474 163.80267 0 296.64828-136.52542 296.64828-304.823474C727.196689 311.989943 594.351078 175.526945 430.548408 175.526945z"  horiz-adv-x="1024" />

    
    <glyph glyph-name="15tianmianfeihuanhuo24px" unicode="&#58888;" d="M631.466667 448c21.333333 0 38.4-4.266667 55.466667-8.533333 17.066667-8.533333 29.866667-17.066667 42.666667-29.866667 12.8-12.8 21.333333-25.6 29.866667-42.666667 8.533333-17.066667 8.533333-34.133333 8.533333-55.466667 0-21.333333-4.266667-38.4-12.8-55.466667-8.533333-17.066667-17.066667-29.866667-29.866667-42.666667-12.8-12.8-29.866667-21.333333-46.933333-29.866667S640 170.666667 622.933333 170.666667c-34.133333 0-59.733333 8.533333-76.8 21.333333s-34.133333 34.133333-46.933333 55.466667l51.2 17.066667c8.533333-17.066667 17.066667-29.866667 29.866667-38.4 12.8-8.533333 29.866667-12.8 46.933333-12.8 12.8 0 25.6 4.266667 34.133333 8.533333 12.8 4.266667 21.333333 12.8 29.866667 21.333333 8.533333 8.533333 12.8 17.066667 21.333333 29.866667 4.266667 12.8 8.533333 25.6 8.533333 38.4 0 17.066667-4.266667 29.866667-8.533333 42.666667-4.266667 12.8-12.8 21.333333-21.333333 29.866667-8.533333 8.533333-21.333333 12.8-34.133333 17.066667s-25.6 4.266667-42.666667 4.266667c-12.8 0-29.866667-4.266667-42.666667-8.533333-17.066667-4.266667-29.866667-12.8-42.666667-17.066667L529.066667 597.333333l226.133333 0 0-46.933333-174.933333 0 0-115.2c8.533333 4.266667 17.066667 8.533333 25.6 8.533333C614.4 448 622.933333 448 631.466667 448zM384 170.666667 341.333333 170.666667 341.333333 554.666667 298.666667 554.666667 256 597.333333l72.533333 0L384 597.333333 384 170.666667zM512-85.333333c-106.666667 0-200.533333 34.133333-281.6 93.866667 12.8 4.266667 25.6 12.8 38.4 25.6C337.066667-12.8 422.4-42.666667 512-42.666667c234.666667 0 426.666667 192 426.666667 426.666667S746.666667 810.666667 512 810.666667 85.333333 618.666667 85.333333 384c0-68.266667 17.066667-132.266667 46.933333-192-12.8-8.533333-21.333333-21.333333-29.866667-34.133333C64 226.133333 42.666667 302.933333 42.666667 384 42.666667 644.266667 251.733333 853.333333 512 853.333333s469.333333-209.066667 469.333333-469.333333S772.266667-85.333333 512-85.333333z"  horiz-adv-x="1024" />

    
    <glyph glyph-name="shouji" unicode="&#58891;" d="M766.056-127.648h-495.034c-29.341 0-53.025 23.755-53.025 53.025v919.371c0 29.341 23.755 53.025 53.025 53.025h495.034c29.2 0 53.025-23.755 53.025-53.025v-919.371c0-29.269-23.825-53.025-53.025-53.025v0zM518.54-74.623c19.513 0 35.349 15.907 35.349 35.42 0 19.442-15.838 35.349-35.349 35.349-19.513 0-35.349-15.907-35.349-35.349-0.070-19.582 15.838-35.42 35.349-35.42v0zM766.056 791.722h-495.106v-742.482h495.106v742.482z"  horiz-adv-x="1024" />

    
    <glyph glyph-name="icon_save" unicode="&#58885;" d="M963.765-128h-903.529c-33.267 0-60.235 26.968-60.235 60.235l0 903.529c0 33.267 26.968 60.235 60.235 60.235h903.529c33.267 0 60.235-26.968 60.235-60.235v-903.529c0-33.267-26.968-60.235-60.235-60.235zM803.177 453.602c-7.66 24.119-29.729 41.34-55.862 41.624l-97.136 2.468c-25.617 0.345-47.276 16.914-55.193 39.883l-32.48 92.002c-8.51 23.612-30.72 40.189-56.802 40.189-26.082 0-48.292-16.577-56.669-39.77l-32.539-92.158c-8.103-23.356-29.801-39.875-55.394-40.148l-97.152-2.468c-32.596-0.862-58.691-27.492-58.691-60.215 0-19.422 9.192-36.698 23.464-47.713l77.362-59.285c14.485-10.903 23.753-28.064 23.753-47.39 0-6.273-0.977-12.319-2.786-17.992l-27.563-92.946c-1.585-5.139-2.498-11.046-2.498-17.166 0-33.267 26.968-60.235 60.235-60.235 12.831 0 24.725 4.012 34.496 10.85l79.949 55.047c9.503 6.782 21.354 10.843 34.153 10.843s24.65-4.061 34.334-10.965l79.962-55.053c9.544-6.643 21.382-10.614 34.146-10.614 33.267 0 60.235 26.968 60.235 60.235 0 6.114-0.911 12.016-2.605 17.576l-27.566 92.938c-1.694 5.255-2.671 11.3-2.671 17.574 0 19.326 9.268 36.487 23.602 47.281l77.373 59.29c14.435 10.912 23.666 28.048 23.666 47.34 0 6.793-1.144 13.319-3.251 19.395z"  horiz-adv-x="1024" />

    
    <glyph glyph-name="touxiang" unicode="&#58895;" d="M510.45 825.446c-243.163 0-442.115-198.951-442.115-442.115 0-243.16 198.952-442.11 442.116-442.11 243.159 0 442.11 198.95 442.11 442.11 0 243.165-198.951 442.115-442.11 442.115z m11.051-132.633c168.556 0 168.556-127.11 168.556-198.95 0-71.847-66.318-204.48-168.556-207.24-99.475 0-168.556 132.632-168.556 207.24 0.001 71.841 0.001 198.95 168.556 198.95z m-11.05-726.723c-127.11 0-243.164 58.03-320.534 149.211 11.051 27.635 24.868 58.03 44.212 74.607 41.446 33.162 165.79 88.425 165.79 88.425l77.37-149.215 13.816 35.923L469 209.253l44.212 44.208 44.212-44.208-19.345-46.974 11.055-35.924 80.132 146.45s124.343-55.262 165.793-88.424c19.34-13.813 33.157-38.685 41.447-60.787C761.9 26.88 643.082-33.91 510.45-33.91z m0 0"  horiz-adv-x="1024" />

    
    <glyph glyph-name="lianxikefu" unicode="&#58932;" d="M529.873 819.127c8.097-0.736 16.305-1.471 24.402-2.355 54.106-5.816 104.86-22.084 151.678-49.835 91.83-54.4 152.045-133.238 180.239-236.295 8.612-31.358 12.513-63.453 12.66-95.916 0.149-32.757 0-65.515 0.074-98.272 0-15.753-3.68-30.475-10.38-44.683-2.65-5.594-3.902-11.924-5.63-18.034C842.832 137.702 729.322 33.54 590.123 5.2c-9.606-1.988-19.323-3.46-29.003-4.712-3.312-0.442-4.417-2.06-5.448-4.785-11.262-29.739-39.933-48.288-71.844-46.744-30.916 1.546-57.933 23.63-65.918 53.884-9.608 36.143 9.826 73.538 44.94 86.568 34.964 13.028 74.237-2.797 90.321-36.657 1.767-3.608 3.607-4.418 7.325-3.828 117.006 19.654 202.321 82.37 256.426 187.857 0.442 0.882 0.847 1.914 1.545 3.312-3.789-0.295-7.102-0.81-10.38-0.957-55.833-3.167-102.43 40.633-102.54 96.505-0.073 32.095-0.073 64.19 0 96.357 0.074 56.02 46.266 99.965 102.174 96.726 9.201-0.515 18.293-3.533 27.493-5.447 0.883-0.147 1.692-0.515 2.724-0.81-30.144 120.65-148.07 243.95-317.268 248.146-173.649 4.196-301.182-118.368-334.306-247.777 6.662 1.619 13.36 3.607 20.096 4.858 50.57 9.349 102.246-26.942 110.602-77.66 1.03-6.405 1.545-13.03 1.62-19.582 0.147-31.432 0.147-62.791 0.073-94.297-0.184-46.667-31.579-85.388-77.218-95.253-52.595-11.335-105.817 24.807-114.577 77.956-0.883 5.373-1.508 10.895-1.508 16.342-0.11 33.86-0.81 67.723 0.037 101.51 3.165 123.963 53.514 224.738 150.498 301.735 49.542 39.309 106.185 63.748 168.57 74.716 14.98 2.65 30.365 3.534 45.565 5.226 1.4 0.22 2.835 0.515 4.344 0.736l35.406 0.001zM270.428 383.64v47.848c-0.074 27.604-21.421 49.246-48.51 49.246-26.758-0.072-48.143-21.642-48.216-49.025-0.037-31.8-0.037-63.6 0.073-95.401 0-3.754 0.368-7.582 1.178-11.191 5.447-23.997 28.046-40.338 51.86-37.615 25.027 2.872 43.467 23.115 43.614 48.143 0.037 16.048 0 32.021 0 47.995z m483.444 0.37c0-15.827-0.037-31.728 0.074-47.555 0-3.827 0.33-7.729 1.216-11.557 5.558-23.997 28.266-40.191 52.042-37.395 25.138 3.093 43.211 23.188 43.284 48.364 0.147 32.094 0.073 64.189 0 96.284 0 3.755-0.442 7.509-1.252 11.115-5.594 23.85-28.157 39.897-51.712 37.247-25.101-2.797-43.504-23.113-43.652-48.215-0.037-16.047 0-32.168 0-48.289z"  horiz-adv-x="1024" />

    
    <glyph glyph-name="dataworks-data" unicode="&#59171;" d="M686.549333 253.653333a291.2 291.2 0 0 0-145.472-235.306666c-138.88-80.085333-316.032-33.130667-395.733333 104.576-67.84 117.184-43.008 262.378667 51.306667 352.725333 0-11.456 1.962667-38.677333 9.856-67.861333-53.269333-72.597333-61.952-172.416-14.208-254.890667 64.32-111.637333 208.32-149.525333 321.152-84.416a236.629333 236.629333 0 0 1 118.272 189.162667 66.794667 66.794667 0 0 0-26.325334 25.472 67.2 67.2 0 0 0 24.853334 91.925333c31.957333 18.538667 72.981333 7.488 91.925333-24.469333a67.2 67.2 0 0 0-35.626667-96.917334z m-339.626666-21.973333a290.944 290.944 0 0 0-134.890667 245.930667C212.032 637.802667 340.650667 768 500.032 768c135.338667 0 248.96-93.909333 279.744-220.544-9.856 5.12-34.325333 17.344-63.125333 24.853333-36.693333 82.453333-118.762667 140.053333-213.845334 140.053334-129.408 0-233.962667-105.728-233.962666-235.946667 0-79.594667 39.68-153.493333 105.429333-197.184a67.434667 67.434667 0 0 0 107.221333-54.528 67.2 67.2 0 0 0-67.456-67.456 67.434667 67.434667 0 0 0-67.114666 74.453333z m146.474666 311.829333c87.402667 44.501333 192.192 42.325333 277.696-7.509333 138.88-80.469333 187.029333-257.237333 107.306667-394.922667-68.245333-117.973333-207.509333-169.258667-333.376-131.392a302.506667 302.506667 0 0 1 53.653333 42.218667c90.346667-10.666667 182.293333 31.573333 230.4 114.816 64.32 111.658667 25.28 255.274667-87.573333 320.362667a235.690667 235.690667 0 0 1-218.24 9.898666 66.56 66.56 0 0 0-8.234667-43.434666 66.837333 66.837333 0 0 0-91.925333-24.469334 67.306667 67.306667 0 0 0-24.853333 91.946667 66.837333 66.837333 0 0 0 95.146666 22.485333z"  horiz-adv-x="1024" />

    
    <glyph glyph-name="porana-data" unicode="&#59176;" d="M449.173333 156.522667a78.933333 78.933333 0 0 1 78.805334-78.869334 78.933333 78.933333 0 0 1 78.805333 78.869334 78.933333 78.933333 0 0 1-78.805333 78.890666c-6.528 0-12.693333-0.789333-18.837334-2.325333-55.36 99.264-152.618667 273.173333-154.922666 276.629333-7.296 12.714667-23.445333 16.554667-36.117334 9.237334a105.216 105.216 0 0 0-144.170666 36.949333 106.005333 106.005333 0 0 0-11.52 80 104.32 104.32 0 0 0 48.426666 64.64 105.194667 105.194667 0 0 0 144.149334-36.906667c7.317333-12.714667 23.466667-16.554667 36.138666-9.237333 12.693333 7.296 16.533333 23.466667 9.237334 36.16C356.138667 765.589333 258.901333 790.186667 184.32 745.578667a156.096 156.096 0 0 1-72.661333-96.576 157.184 157.184 0 0 1 17.301333-119.658667c29.226667-50.005333 81.877333-77.717333 136.085333-77.717333 17.685333 0 34.986667 3.072 52.266667 8.853333l147.626667-257.002667a76.693333 76.693333 0 0 1-15.765334-46.933333M627.541333 279.253333l145.301334 252.010667a78.933333 78.933333 0 0 1 86.485333 78.506667 78.933333 78.933333 0 0 1-78.784 78.869333 78.933333 78.933333 0 0 1-55.744-134.656 90883.498667 90883.498667 0 0 1-156.842667-268.949333 26.453333 26.453333 0 0 1 10.368-35.776c51.136-27.712 69.973333-91.946667 41.92-143.146667a105.685333 105.685333 0 0 0-62.677333-50.773333 104.64 104.64 0 0 0-80.341333 8.469333 105.749333 105.749333 0 0 0-50.730667 62.72 104.896 104.896 0 0 0 8.448 80.405333 26.453333 26.453333 0 0 1-10.368 35.776 26.432 26.432 0 0 1-35.754667-10.389333c-20.373333-36.928-24.597333-79.637333-12.693333-120.426667a158.250667 158.250667 0 0 1 75.733333-94.250666 157.866667 157.866667 0 0 1 75.349334-19.242667c14.997333 0 29.973333 2.304 44.970666 6.549333a158.165333 158.165333 0 0 1 94.186667 75.776c37.290667 68.117333 19.2 151.210667-38.826667 198.549334M887.786667 725.973333a157.610667 157.610667 0 0 1-113.408 41.92 156.373333 156.373333 0 0 1-109.930667-50.773333 158.613333 158.613333 0 0 1-40.362667-84.266667H340.394667a78.656 78.656 0 0 1-75.733334 56.170667A78.933333 78.933333 0 0 1 185.856 610.133333a78.933333 78.933333 0 0 1 78.805333-78.890666 78.72 78.72 0 0 1 73.045334 48.853333c111.082667-0.362667 309.824-1.514667 312.533333-1.514667a26.517333 26.517333 0 0 1 25.344 27.306667 105.962667 105.962667 0 0 0 27.690667 75.797333 104.405333 104.405333 0 0 0 73.024 33.856 105.749333 105.749333 0 0 0 75.733333-27.690666 104.576 104.576 0 0 0 33.834667-73.109334c2.304-58.090667-43.050667-107.349333-101.12-109.653333a26.517333 26.517333 0 0 1-25.365334-27.306667c0.405333-14.250667 12.309333-25.386667 26.154667-25.386666h1.152c86.869333 3.456 154.922667 77.312 151.466667 164.266666-1.173333 41.557333-19.242667 80.426667-50.368 109.269334"  horiz-adv-x="1024" />

    
    <glyph glyph-name="ruleengine-data" unicode="&#59177;" d="M478.592 225.6V353.706667c0 15.232-10.389333 30.464-25.6 30.464h-117.738667c-7.616 0-14.549333 2.069333-20.074666 6.912l-9.706667 9.706666c-4.842667 5.546667-6.912 11.776-6.912 19.392v117.717334c0 15.232-14.549333 26.304-29.781333 26.304H140.672c-15.232 0-33.237333-10.389333-33.237333-26.304v-128.106667c0-15.232 18.005333-25.621333 33.237333-25.621333h127.424c7.616 0 14.528-4.16 20.053333-9.002667l1.408-0.704c4.842667-5.546667 9.002667-13.845333 9.002667-20.757333v-128.106667c0-15.232 11.093333-32.554667 26.304-32.554667h128.106667c15.232-0.682667 25.621333 16.64 25.621333 32.554667z m416.170667 158.570667h-117.717334a27.733333 27.733333 0 0 0-20.074666 8.32l-11.093334 10.368c-5.546667 5.546667-9.002667 12.48-9.002666 20.096v117.717333c0 15.232-11.072 24.234667-27.008 24.234667h-127.402667c-15.232 0-24.938667-9.002667-24.938667-24.234667v-128.106667c0-15.232 9.706667-27.712 24.938667-27.712h128.106667c7.616 0 14.549333-3.456 20.074666-8.32h-0.682666c5.546667-5.525333 7.616-12.437333 7.616-20.053333v-128.106667c0-15.253333 13.845333-23.552 29.077333-23.552h128.106667c15.232 0 22.165333 7.616 22.165333 23.552v127.402667c0 15.232-6.933333 28.373333-22.165333 28.373333z m-537.344 33.237333h128.106666c15.232 0 26.304 15.232 26.304 30.464v128.789333c0 7.637333 3.456 14.549333 9.002667 20.096l0.704 2.069334c5.546667 5.546667 12.458667 10.389333 20.053333 10.389333h128.128c15.232 0 33.237333 8.32 33.237334 23.552V760.874667c0 15.232-18.005333 28.373333-33.237334 28.373333h-128.106666c-15.232 0-29.781333-12.458667-29.781334-28.373333v-117.717334c0-7.616-2.069333-14.549333-7.616-20.096l-9.685333-8.32c-5.546667-5.525333-11.776-6.208-19.413333-6.208h-117.696c-15.232 0-25.621333-16.64-25.621334-32.554666v-128.106667c0-15.232 9.685333-30.464 25.6-30.464z m315.754666-67.178667H545.066667c-15.232 0-33.237333-15.232-33.237334-30.464v-117.717333c0-7.616-0.682667-14.549333-5.546666-20.074667l-9.002667-12.458666c-5.546667-5.546667-11.072-10.389333-18.688-10.389334h-117.717333c-15.232 0-29.077333-8.32-29.077334-23.552v-128.106666c0-15.232 13.141333-28.373333 29.077334-28.373334h128.106666c15.232 0 22.848 12.458667 22.848 28.373334v127.424c0 7.616 5.546667 14.528 10.389334 20.053333l1.386666-2.048c5.546667 5.546667 13.866667 6.229333 20.778667 6.229333h128.106667c15.232 0 29.76 17.301333 29.76 32.533334V319.786667c1.386667 15.232-13.141333 30.464-29.077334 30.464z"  horiz-adv-x="1024" />

    
    <glyph glyph-name="lihe" unicode="&#58882;" d="M863.371 655.618h-30.527c15.479 26.249 22.272 51.285 20.105 74.508-1.809 19.436-11.013 47.235-44.771 69.391-27.989 18.41-63.978 22.926-103.902 12.951-64.751-16.259-141.381-72.146-191.771-139.691-50.42 67.542-126.991 123.431-191.739 139.691-39.958 10.037-75.981 5.492-103.965-12.951-33.727-22.155-42.94-49.954-44.737-69.391-2.173-23.222 4.559-48.262 20.102-74.508h-30.529c-46.226 0-83.843-37.649-83.843-83.909v-108.079c0-36.591 24.134-68.935 59.056-79.794-3.323-9.185-5.057-18.681-5.057-28.294v-324.244c0-46.228 37.663-83.894 83.892-83.894h593.733c46.228 0 83.831 37.666 83.831 83.894v324.244c0 9.682-1.673 19.205-4.995 28.325 34.867 10.923 58.948 43.264 58.948 79.767v108.049c-0.002 46.254-37.605 83.935-83.834 83.935M809.418 7.153h-267.065v372.556h267.065c13.312 0 24.11-10.854 24.11-24.166v-324.244c-0.005-13.313-10.798-24.146-24.11-24.146M575.239 655.618c42.474 48.989 98.224 87.491 143.491 98.847 23.513 5.893 42.752 4.278 56.678-4.903 14.802-9.725 17.442-18.398 18.034-24.946 2.355-24.011-23.398-56.386-35.555-69.001l-182.647 0.003zM887.446 571.681v-108.049c0-13.309-10.764-24.134-24.076-24.134h-321.019v156.333h321.020c13.311 0 24.075-10.843 24.075-24.149M482.627 379.71v-372.555h-266.943c-13.343 0-24.138 10.832-24.138 24.144v324.244c0 13.312 10.798 24.166 24.138 24.166h266.943zM231.57 724.615c0.59 6.55 3.258 15.223 17.994 24.946 13.836 9.182 33.073 10.877 56.715 4.903 45.017-11.293 100.708-49.795 143.273-98.847h-182.489c-10.889 11.027-37.883 44.41-35.493 68.997M137.502 571.681c0 13.307 10.798 24.153 24.135 24.153h320.99v-156.336h-320.99c-13.341 0-24.135 10.826-24.135 24.134v108.049z"  horiz-adv-x="1024" />

    
    <glyph glyph-name="gouwuchekong" unicode="&#58880;" d="M354.1333333333333 113.22199999999998q19.456 0 36.864-7.167999999999999t30.208-19.968 20.48-30.208 7.679999999999999-36.864-7.679999999999999-36.864-20.48-30.208-30.208-20.48-36.864-7.679999999999999q-20.48 0-37.888 7.679999999999999t-30.208 20.48-20.48 30.208-7.679999999999999 36.864 7.679999999999999 36.864 20.48 30.208 30.208 19.968 37.888 7.167999999999999zM780.1173333333334 111.17399999999998q19.456 0 37.376-7.167999999999999t30.719999999999995-19.968 20.48-30.208 7.679999999999999-36.864-7.679999999999999-36.864-20.48-30.208-30.719999999999995-20.48-37.376-7.679999999999999-36.864 7.679999999999999-30.208 20.48-20.48 30.208-7.679999999999999 36.864 7.679999999999999 36.864 20.48 30.208 30.208 19.968 36.864 7.167999999999999zM952.1493333333332 692.806q28.671999999999997 0 44.544-7.679999999999999t22.528-18.944 6.144-24.064-3.5839999999999996-22.016-13.311999999999998-37.888-22.016-62.97599999999999-23.552-68.096-18.944-53.24799999999999q-13.311999999999998-40.96-33.28-56.832t-49.664-15.871999999999998l-35.84 0-65.536 0-86.016 0-96.256 0-253.95199999999997 0 14.335999999999999-92.16 517.12 0q49.152 0 49.152-41.984 0-20.48-9.728-35.84t-38.4-14.335999999999999l-49.152 0-94.208 0-118.78399999999999 0-119.80800000000002 0-99.328 0-55.29599999999999 0q-20.48 0-34.304 9.216t-23.04 24.064-14.847999999999999 32.256-8.704 32.768q-1.024 6.144-5.632 29.695999999999998t-11.264 58.88-14.847999999999999 78.848-16.384 87.552q-19.456 103.42399999999999-44.032 230.39999999999998l-76.8 0q-15.359999999999998 0-25.6 7.679999999999999t-16.896 18.432-9.216 23.04-2.56 22.528q0 20.48 13.823999999999998 33.792t37.376 12.288l103.42399999999999 0q20.48 0 32.768-6.144t19.456-15.359999999999998 10.24-18.944 5.12-16.896q2.048-8.192 4.096-23.04t4.096-30.208q3.072-18.432 6.144-38.912l700.416 0zM914.2613333333335 601.67l-641.024 2.048 35.84-185.344 535.552-1.024z"  horiz-adv-x="1028" />

    
    <glyph glyph-name="yijiuhuanxin" unicode="&#58896;" d="M531.072-110.016c-250.048 0-453.376 203.456-453.376 453.44H13.376l96.192 128.448 85.184-128.448h-56.64a393.472 393.472 0 0 1 392.96-392.96c174.336 0 321.664 100.352 372.288 267.072 0 0 22.656 39.168 44.608 22.464 22.336-17.024 17.088-41.984 17.088-41.984-58.432-192.32-232.896-308.032-433.984-308.032zM640.448 661.312H376l-48.192-80.448v-433.472l75.584-67.072h210.432l76.8 67.072V590.592l-50.176 70.72z m-93.76-513.92H478.976v19.968h67.712v-19.968z m67.136 95.488H403.392V475.072h210.432v-232.192z m0 327.744H403.392v19.968h210.432v-19.968zM523.584 838.656a453.952 453.952 0 0 0 453.44-453.44h64.256l-96.256-128.512-85.12 128.512h56.768a393.472 393.472 0 0 1-393.088 392.96c-174.336 0-320.96-98.24-371.648-264.896 0 0-11.968-27.328-41.92-15.36s-13.632 39.936-13.632 39.936c58.496 192.256 226.048 300.8 427.2 300.8z"  horiz-adv-x="1041" />

    
    <glyph glyph-name="xuangoushouji" unicode="&#58881;" d="M392.533333 234.66666699999996L320 234.66666699999996 320 640l264.533333 0c0 0 0-8.533333 0-8.533333l21.333333 0L605.866667 699.733333c0 12.8-4.266667 21.333333-17.066667 21.333333L315.733333 721.066667C302.933333 721.066667 298.666667 712.533333 298.666667 699.733333l0-537.6c0-12.8 4.266667-21.333333 17.066667-21.333333l76.8 0L392.533333 234.66666699999996zM725.333333 593.066667l-273.066667 0c-12.8 0-17.066667-12.8-17.066667-21.333333l0-537.6c0-12.8 4.266667-21.333333 17.066667-21.333333L725.333333 12.799999999999955c12.8 0 17.066667 12.8 17.066667 21.333333L742.4 571.733333C742.4 580.266667 733.866667 593.066667 725.333333 593.066667zM618.666667 38.39999999999998L554.666667 38.39999999999998c-12.8 0-21.333333 8.533333-21.333333 21.333333s8.533333 21.333333 21.333333 21.333333l64 0c12.8 0 21.333333-8.533333 21.333333-21.333333S631.466667 38.39999999999998 618.666667 38.39999999999998zM721.066667 102.39999999999998l-264.533333 0L456.533333 512l264.533333 0L721.066667 102.39999999999998z"  horiz-adv-x="1024" />

    
    <glyph glyph-name="location" unicode="&#58897;" d="M512.103132 575.879021a106.221743 106.221743 0 1 0-75.507022-31.354611A106.221743 106.221743 0 0 0 512.103132 575.879021m0 63.989002a170.850635 170.850635 0 1 1 120.939214-49.911422A169.570855 169.570855 0 0 1 512.103132 639.868023zM805.172761 771.685367a407.609942 407.609942 0 0 1-586.139257 0 431.285873 431.285873 0 0 1 0-599.576948L512.103132-128l293.069629 300.108419a431.285873 431.285873 0 0 1 0 599.576948z m-44.152411-557.344207l-248.917218-255.956007-248.917217 255.956007a365.377201 365.377201 0 0 0 0 508.712565 346.82039 346.82039 0 0 0 497.834435 0 365.377201 365.377201 0 0 0 0-508.712565z"  horiz-adv-x="1024" />

    
    <glyph glyph-name="huafeichongzhi" unicode="&#58886;" d="M898.624-47.55200000000002H86.144L0 73.66399999999999v592l100.288 109.888h814.656L1024 666.496v-596.48l-125.376-117.568zM62.976 466.432v-372.672l55.68-78.336h755.008l87.296 81.856V459.968m5.696 96.192l-5.632 84.224-72.128 72.128H128.128L62.976 641.216v-86.272M124.032 363.96799999999996h364.032v-64H124.032zM644.032 235.96799999999996h60.032v-64h-60.032zM124.032 235.96799999999996h364.032v-64H124.032zM764.032 235.96799999999996h64v-64h-64z"  horiz-adv-x="1024" />

    
    <glyph glyph-name="shoujiqia" unicode="&#58884;" d="M293.075-77.71500000000003l457.025-1.7053e-13c39.682-1.06581e-14 71.599 33.542 71.599 75.028l1.7053e-13 672.189c1.33227e-15 4.147-149.332 153.127-149.332 153.127l-379.294 1.42109e-13c-39.682 1.06581e-14-71.599-33.542-71.599-75.028l-2.27374e-13-750.286c-1.06581e-14-41.483 32.101-75.028 71.599-75.028ZM510.587 22.20399999999995l-114.709 3.55271e-14 4.26326e-14 141.401 114.709-3.55271e-14-4.26326e-14-141.401ZM635.571 22.20399999999995l-104.251 3.55271e-14 4.26326e-14 141.401 104.251-3.55271e-14-4.26326e-14-141.401ZM771.021 73.60699999999997c-8.88178e-15-28.314-18.757-51.404-41.663-51.404l-72.868 1.42109e-14 4.26326e-14 141.401 114.709-3.55271e-14-2.13163e-14-90ZM656.494 472.377l72.868-1.42109e-14c23.087-1.06581e-14 41.663-22.907 41.663-51.404l-2.13163e-14-90-114.709 3.55271e-14 4.26326e-14 141.401ZM531.328 472.377l104.251-3.55271e-14-4.26326e-14-141.401-104.251 3.55271e-14 4.26326e-14 141.401ZM395.875 472.377l114.709-3.55271e-14-4.26326e-14-141.401-114.709 3.55271e-14 4.26326e-14 141.401ZM270.709 420.974c8.88178e-15 28.314 18.575 51.404 41.663 51.404l62.586-1.77636e-14-4.26326e-14-167.018 396.063-1.42109e-13-4.26326e-14-115.787-500.313 1.42109e-13 8.52651e-14 231.402ZM270.709 73.60699999999997l2.13163e-14 90 104.251-3.55271e-14-4.26326e-14-141.401-62.586 1.77636e-14c-22.907 3.55271e-15-41.663 23.087-41.663 51.404Z"  horiz-adv-x="1024" />

    
    <glyph glyph-name="gengduo2" unicode="&#58887;" d="M514.27555555 893.38311111c-281.37244445 0-509.49688889-228.12444445-509.49688888-509.49688889S232.78933333-125.61066667 514.27555555-125.61066667s509.49688889 228.12444445 509.4968889 509.49688889S795.648 893.38311111 514.27555555 893.38311111z m182.8408889-545.56444444L476.61511111 152.00711110999998c-19.56977778-17.408-49.94844445-15.58755555-67.35644444 3.98222222-17.408 19.56977778-15.58755555 49.94844445 3.98222222 67.35644445l180.79288889 160.54044444L413.24088889 544.42666667c-19.56977778 17.408-21.39022222 47.67288889-3.98222222 67.35644444 17.408 19.56977778 47.67288889 21.39022222 67.35644444 3.98222222l220.50133334-195.81155555c10.69511111-9.44355555 16.04266667-22.75555555 15.92888888-36.06755556 0.11377778-13.312-5.23377778-26.624-15.92888888-36.06755555z"  horiz-adv-x="1024" />

    
    <glyph glyph-name="touxiang1" unicode="&#58918;" d="M512 831.37C264.92 831.37 64.63 631.0799999999999 64.63 384S264.92-63.370000000000005 512-63.370000000000005 959.37 136.91999999999996 959.37 384 759.08 831.37 512 831.37z m253.89-716.3c-6.36-46.06-132.13-65.85-254.83-64.14-122.7-1.7-246.58 18.08-253 64.14-12.73 92.18 14.22 129.17 68.74 138.28 42.45 7.12 100.63 47.52 100.63 65v44.3c0 16.52-22.85 47.45-32.5 75.91-0.91 2.67-4.34-0.4-9.95 6.39-10.78 12.91-13.56 32.58-16.06 41.52-3.83 14.07 13 14.64 13 14.64s-13.3 73.89-1.8 120.53c15.7 63.53 99.44 95.53 132.32 95.53s116.76-32 132.38-95.53c11.5-46.65-1.45-120.52-1.45-120.52s17.39-0.58 13.49-14.64c-2.43-8.93-4-28.6-14.72-41.52-5.68-6.8-11.57-3.72-12.44-6.39-9.73-28.46-32.47-59.38-32.47-75.91v-44.3c0-17.5 58.11-57.89 100.56-65 54.53-9.13 80.89-46.12 68.1-138.29z"  horiz-adv-x="1024" />

    
    <glyph glyph-name="icon" unicode="&#59098;" d="M875.028107 832.758654H148.868539c-24.028253 0-43.505863-19.478633-43.505863-43.505863s19.47761-43.505863 43.505863-43.505863h726.161615c24.028253 0 43.505863 19.478633 43.505863 43.505863s-19.478633 43.505863-43.50791 43.505863zM864.847234 370.569106v0.002047l-321.655838 321.66914c-7.91118 8.179286-18.99461 13.273305-31.275307 13.273305-12.455683 0-23.679305-5.241374-31.608905-13.630439L159.003364 370.550687c-7.830339-7.900947-12.667507-18.770506-12.667508-30.769794 0-24.149003 19.574824-43.722804 43.720758-43.722804 12.396331 0 23.582091 5.16872 31.53932 13.458523l246.147096 246.162446V-19.544893c0-24.028253 19.478633-43.505863 43.505863-43.505863 24.028253 0 43.505863 19.47761 43.505863 43.505863V557.031868l248.327762-248.223384c7.896854-7.865131 18.786878-12.723789 30.813796-12.723789 24.119327 0 43.666522 19.548218 43.666522 43.666522 0 12.025894-4.863774 22.913872-12.723789 30.809703l0.008187 0.008186z"  horiz-adv-x="1024" />

    
    <glyph glyph-name="Fma" unicode="&#58883;" d="M512 584.348h111.304c24.59 0 44.521 19.932 44.521 44.52 0 24.59-19.932 44.522-44.521 44.522H489.739c-73.766 0-133.565-59.799-133.565-133.565V139.13c0-24.59 19.932-44.521 44.521-44.521 24.59 0 44.521 19.932 44.521 44.521V250.435c0 36.884 29.899 66.782 66.783 66.782h111.304c24.59 0 44.521 19.933 44.521 44.522 0 24.59-19.932 44.521-44.521 44.521H512c-36.884 0-66.783 29.9-66.783 66.783v44.521c0 36.885 29.899 66.784 66.783 66.784zM512 896C229.231 896 0 666.77 0 384s229.231-512 512-512 512 229.23 512 512S794.769 896 512 896z m0-934.956C278.407-38.956 89.044 150.407 89.044 384S278.407 806.956 512 806.956 934.956 617.592 934.956 384 745.592-38.956 512-38.956z"  horiz-adv-x="1024" />

    
    <glyph glyph-name="xiaoxi" unicode="&#58889;" d="M504.755431 727.436867v-474.557108c0-93.677349 74.885785-168.563133 168.563134-168.563133H923.078083l6.170364-212.316626 249.759518 212.316626h280.89181c93.677349 0 168.563133 74.885785 168.563134 168.563133V727.436867c0 93.677349-74.885785 168.563133-168.563134 168.563133h-786.721446C579.641216 889.6894 504.755431 814.803615 504.755431 727.436867zM1229.072057 458.885785c0 43.753492 37.442892 81.196385 81.196385 81.196384s81.196385-37.442892 81.196384-81.196384-37.442892-74.885785-81.196384-74.885785-81.196385 31.272528-81.196385 74.885785z m-243.589154 0c0 43.753492 37.442892 81.196385 81.196385 81.196384s81.196385-37.442892 81.196384-81.196384-37.442892-81.196385-81.196384-81.196385c-43.753492 6.3106-81.196385 37.583128-81.196385 81.196385z m-237.278554 0c0 43.753492 37.442892 81.196385 81.196385 81.196384s81.196385-37.442892 81.196385-81.196384-37.442892-74.885785-81.196385-74.885785-81.196385 31.272528-81.196385 74.885785z m0 0"  horiz-adv-x="2735" />

    
    <glyph glyph-name="denglu" unicode="&#58893;" d="M496.3 157.7h62.2v-121.8h-62.2zM558.5 25.6h-62.2c-5.7 0-10.4 4.7-10.4 10.4V157.7c0 5.7 4.7 10.4 10.4 10.4h62.2c5.7 0 10.4-4.7 10.4-10.4V36c0-5.8-4.6-10.4-10.4-10.4z m-51.8 20.8h41.4v101h-41.4v-101zM717.7 21.2H371.1c-10.3 0-18.7-8.4-18.7-18.7 0-10.3 8.4-18.7 18.7-18.7h346.6c10.3 0 18.7 8.4 18.7 18.7 0 10.3-8.4 18.7-18.7 18.7zM807.2 571.2c-0.3 0-0.6 0.1-0.9 0.1H280.2c-15.3 0-27.7-12.4-27.7-27.7v-357.4c0-1.8 0.2-3.5 0.5-5.2 2.4-12.8 13.7-22.6 27.2-22.6h128.9c372.5 71.7 404 306.3 398.1 412.8zM806.3 158.3c15.3 0 27.7 12.4 27.7 27.7V543.5c0 15-11.9 27.2-26.8 27.6C813 464.6 781.6 230 409.1 158.3h397.2zM710.3-26.7H344.5c-20.1 0-36.5 16.4-36.5 36.5s16.4 36.5 36.5 36.5h365.8c20.1 0 36.5-16.4 36.5-36.5s-16.4-36.5-36.5-36.5z m-365.8 52.3c-8.7 0-15.7-7-15.7-15.7s7-15.7 15.7-15.7h365.8c8.7 0 15.7 7 15.7 15.7s-7 15.7-15.7 15.7H344.5zM220.7 461.5c-5.7 0-10.4 4.7-10.4 10.4v22.9c0 5.7 4.7 10.4 10.4 10.4s10.4-4.7 10.4-10.4v-22.9c0-5.7-4.6-10.4-10.4-10.4zM268.7 241.9h565.4M834.1 231.5H268.7c-5.7 0-10.4 4.7-10.4 10.4s4.7 10.4 10.4 10.4H834c5.7 0 10.4-4.7 10.4-10.4s-4.6-10.4-10.3-10.4zM156.1 645.9h-12.3v12.3c0 3.3-2.7 6-6 6s-6-2.7-6-6v-12.3h-12.3c-3.3 0-6-2.7-6-6s2.7-6 6-6h12.3v-12.3c0-3.3 2.7-6 6-6s6 2.7 6 6V634h12.3c3.3 0 6 2.7 6 6s-2.7 5.9-6 5.9zM953.5 433.2h-12.3v12.3c0 3.3-2.7 6-6 6s-6-2.7-6-6v-12.3h-12.3c-3.3 0-6-2.7-6-6s2.7-6 6-6h12.3v-12.3c0-3.3 2.7-6 6-6s6 2.7 6 6v12.3h12.3c3.3 0 6 2.7 6 6s-2.7 6-6 6zM849.6 713.4h-14.3v14.3c0 3.8-3.1 6.9-6.9 6.9s-6.9-3.1-6.9-6.9v-14.3h-14.3c-3.8 0-6.9-3.1-6.9-6.9s3.1-6.9 6.9-6.9h14.3v-14.3c0-3.8 3.1-6.9 6.9-6.9s6.9 3.1 6.9 6.9v14.3h14.3c3.8 0 6.9 3.1 6.9 6.9s-3.1 6.9-6.9 6.9zM278.8 668.2m-10.4 0a10.4 10.4 0 1 1 20.8 0 10.4 10.4 0 1 1-20.8 0ZM921.4 570.3m-13.9 0a13.9 13.9 0 1 1 27.8 0 13.9 13.9 0 1 1-27.8 0ZM712.2 667.7m-13.9 0a13.9 13.9 0 1 1 27.8 0 13.9 13.9 0 1 1-27.8 0ZM92.7 430.7c-15.5 0-28.2 12.6-28.2 28.2 0 15.5 12.6 28.2 28.2 28.2s28.2-12.6 28.2-28.2-12.7-28.2-28.2-28.2z m0 42.5c-7.9 0-14.3-6.4-14.3-14.3s6.4-14.3 14.3-14.3S107 451 107 458.9s-6.4 14.3-14.3 14.3zM542.8 661.4c-15.5 0-28.2 12.6-28.2 28.2 0 15.5 12.6 28.2 28.2 28.2 15.5 0 28.2-12.6 28.2-28.2s-12.6-28.2-28.2-28.2z m0 42.5c-7.9 0-14.3-6.4-14.3-14.3s6.4-14.3 14.3-14.3 14.3 6.4 14.3 14.3c0.1 7.8-6.4 14.3-14.3 14.3zM380.6 785.6c-1.5 1.5-3.9 1.5-5.4 0-0.7-0.7-1.1-1.7-1.1-2.7 0-1 0.4-2 1.1-2.7l12.3-12.3c0.7-0.7 1.7-1.1 2.7-1.1s2 0.4 2.7 1.1c1.5 1.5 1.5 3.9 0 5.4l-12.3 12.3zM413.1 753c-0.7 0.7-1.7 1.1-2.7 1.1-1 0-2-0.4-2.7-1.1-1.5-1.5-1.5-3.9 0-5.4l12.3-12.3c0.7-0.7 1.7-1.1 2.7-1.1 1 0 2 0.4 2.7 1.1 0.7 0.7 1.1 1.7 1.1 2.7 0 1-0.4 2-1.1 2.7L413.1 753zM410.4 766.7c1 0 2 0.4 2.7 1.1l12.3 12.3c0.7 0.7 1.1 1.7 1.1 2.7 0 1-0.4 2-1.1 2.7-1.5 1.5-3.9 1.5-5.4 0l-12.3-12.3c-1.5-1.5-1.5-3.9 0-5.4 0.7-0.7 1.7-1.1 2.7-1.1zM387.5 753l-12.3-12.3c-0.7-0.7-1.1-1.7-1.1-2.7 0-1 0.4-2 1.1-2.7 0.7-0.7 1.7-1.1 2.7-1.1 1 0 2 0.4 2.7 1.1l12.3 12.3c1.5 1.5 1.5 3.9 0 5.4-1.4 1.5-4 1.5-5.4 0zM389.9 760.4c0 2.1-1.7 3.8-3.8 3.8h-17.4c-2.1 0-3.8-1.7-3.8-3.8s1.7-3.8 3.8-3.8H386c2.2 0 3.9 1.7 3.9 3.8zM432 764.3h-17.4c-2.1 0-3.8-1.7-3.8-3.8s1.7-3.8 3.8-3.8H432c2.1 0 3.8 1.7 3.8 3.8s-1.7 3.8-3.8 3.8zM400.3 796c-2.1 0-3.8-1.7-3.8-3.8v-17.4c0-2.1 1.7-3.8 3.8-3.8s3.8 1.7 3.8 3.8v17.4c0.1 2-1.7 3.8-3.8 3.8zM400.3 750c-2.1 0-3.8-1.7-3.8-3.8v-17.4c0-2.1 1.7-3.8 3.8-3.8s3.8 1.7 3.8 3.8v17.4c0.1 2.1-1.7 3.8-3.8 3.8zM876.2-28h-24.8c-5.7 0-10.4 4.7-10.4 10.4s4.7 10.4 10.4 10.4h24.8c5.7 0 10.4-4.7 10.4-10.4s-4.7-10.4-10.4-10.4zM214.4-28h-31.7c-5.7 0-10.4 4.7-10.4 10.4s4.7 10.4 10.4 10.4h31.7c5.7 0 10.4-4.7 10.4-10.4s-4.7-10.4-10.4-10.4zM820.8-28H249.3c-5.7 0-10.4 4.7-10.4 10.4s4.7 10.4 10.4 10.4h571.4c5.7 0 10.4-4.7 10.4-10.4 0.1-5.7-4.6-10.4-10.3-10.4zM289.2 501.9c-5.7 0-10.4 4.7-10.4 10.4v9.6c0 5.7 4.7 10.4 10.4 10.4s10.4-4.7 10.4-10.4v-9.6c0-5.8-4.7-10.4-10.4-10.4zM289.2 406.6c-5.7 0-10.4 4.7-10.4 10.4v59.5c0 5.7 4.7 10.4 10.4 10.4s10.4-4.7 10.4-10.4V417c0-5.8-4.7-10.4-10.4-10.4zM806.3 147.9H248.5c-21 0-38.1 17.1-38.1 38.1V437.3c0 5.7 4.7 10.4 10.4 10.4s10.4-4.7 10.4-10.4v-251.2c0-9.6 7.8-17.3 17.3-17.3h557.9c9.6 0 17.3 7.8 17.3 17.3v380c0 9.6-7.8 17.3-17.3 17.3H248.5c-9.6 0-17.3-7.8-17.3-17.3v-36.6c0-5.7-4.7-10.4-10.4-10.4s-10.4 4.7-10.4 10.4v36.6c0 21 17.1 38.1 38.1 38.1h557.9c21 0 38.1-17.1 38.1-38.1v-380c0-21-17.1-38.2-38.2-38.2z"  horiz-adv-x="1024" />

    
    <glyph glyph-name="yuyinanjian" unicode="&#58911;" d="M582.144 589.312c62.464-54.784 101.888-134.656 101.888-223.744 0-85.504-36.352-162.816-94.208-217.088l-35.328 35.328c49.152 45.568 79.872 110.08 79.872 182.272 0 75.776-33.792 143.36-87.04 188.928l34.816 34.304zM487.424 494.592c41.472-28.16 68.608-75.264 68.608-129.024 0-50.176-23.552-94.72-60.416-123.392l-35.328 35.328c28.16 18.944 46.08 51.2 46.08 87.552 0 39.936-22.016 75.264-54.784 93.184l35.84 36.352zM393.216 408.064c19.456 0 35.328-15.872 35.328-35.328 0-19.456-15.872-35.328-35.328-35.328-19.456 0-35.328 15.872-35.328 35.328-0.512 19.456 15.36 35.328 35.328 35.328zM519.68 757.76C306.176 757.76 133.12 584.704 133.12 371.2S306.176-15.36 519.68-15.36s386.56 173.056 386.56 386.56S733.184 757.76 519.68 757.76z m0-732.16C328.704 25.6 174.08 180.224 174.08 371.2S328.704 716.8 519.68 716.8 865.28 562.176 865.28 371.2 710.656 25.6 519.68 25.6z"  horiz-adv-x="1024" />

    
    <glyph glyph-name="liuyanmoban" unicode="&#58955;" d="M608.256 214.016l-61.44-24.576-8.192 65.536zM987.136 693.248l-22.528 14.336 14.336 24.576c6.144 10.24 2.048 22.528-8.192 28.672 8.192 12.288 12.288 26.624 12.288 40.96 0 28.672-14.336 55.296-40.96 71.68-18.432 10.24-40.96 14.336-61.44 8.192-20.48-6.144-38.912-18.432-49.152-38.912-4.096 2.048-10.24 4.096-16.384 2.048-4.096-2.048-10.24-4.096-12.288-10.24l-131.072-225.28H40.96c-10.24 0-20.48-10.24-20.48-20.48v-534.528c0-12.288 10.24-20.48 20.48-20.48h268.288V-66.56c0-8.192 4.096-14.336 10.24-18.432 4.096-2.048 6.144-2.048 10.24-2.048s8.192 2.048 12.288 4.096l174.08 116.736H819.2c10.24 0 20.48 8.192 20.48 20.48V492.544l104.448 180.224 22.528-12.288s2.048-2.048 0-6.144c0-8.192-6.144-28.672-49.152-63.488-38.912-30.72-57.344-57.344-57.344-81.92 0-14.336 4.096-26.624 16.384-36.864 4.096-4.096 8.192-6.144 14.336-6.144 6.144 0 10.24 2.048 14.336 6.144 8.192 8.192 8.192 20.48 0 28.672-4.096 2.048-4.096 4.096-4.096 4.096 0 4.096 4.096 20.48 43.008 51.2 57.344 45.056 65.536 79.872 65.536 102.4-2.048 14.336-10.24 28.672-22.528 34.816zM798.72 74.752H507.904c-4.096 0-8.192-2.048-12.288-4.096l-145.408-100.352v81.92c0 12.288-10.24 20.48-20.48 20.48H61.44V568.32h585.728l-153.6-266.24c-2.048-2.048-2.048-6.144-2.048-10.24v-4.096l12.288-88.064H163.84c-10.24 0-20.48-10.24-20.48-20.48s10.24-20.48 20.48-20.48h346.112c0-6.144 4.096-12.288 10.24-14.336 4.096-2.048 6.144-2.048 10.24-2.048 2.048 0 4.096 0 8.192 2.048l120.832 49.152h2.048c2.048 0 2.048 2.048 4.096 2.048h2.048l2.048 2.048c2.048 2.048 2.048 2.048 2.048 4.096L798.72 420.864v-346.112z m-260.096 180.224l69.632-38.912-59.392-24.576-10.24 63.488zM839.68 574.464l-40.96-71.68-151.552-264.192-34.816 20.48-71.68 40.96L694.272 568.32l24.576 40.96 108.544 188.416 71.68-40.96 34.816-20.48-94.208-161.792z m96.256 206.848l-71.68 40.96c6.144 10.24 14.336 16.384 24.576 18.432 4.096 0 6.144 2.048 10.24 2.048 8.192 0 14.336-2.048 20.48-6.144 20.48-10.24 26.624-34.816 16.384-55.296zM798.72 420.864v-346.112H501.76l-4.096-4.096-145.408-100.352v81.92c0 12.288-10.24 20.48-20.48 20.48H61.44V568.32h585.728l-153.6-266.24c-2.048-2.048-2.048-6.144-2.048-10.24v-4.096l12.288-88.064H163.84c-10.24 0-20.48-10.24-20.48-20.48s10.24-20.48 20.48-20.48h346.112c0-6.144 4.096-12.288 10.24-14.336 4.096-2.048 6.144-2.048 10.24-2.048 2.048 0 4.096 0 8.192 2.048l120.832 49.152h2.048c2.048 0 2.048 2.048 4.096 2.048h2.048l2.048 2.048c2.048 2.048 2.048 2.048 2.048 4.096L798.72 420.864zM897.67936 756.10112l-84.992-147.21024-23.552-40.79616-178.176-308.61312-70.94272 40.96 154.624 267.81696 23.552 40.79616 108.544 188.0064zM933.15072 735.62112l-93.184-161.3824-40.96-70.9632-152.576-264.27392-35.47136 20.48 178.176 308.61312 23.552 40.79616 84.992 147.21024zM935.89504 781.33248l-70.94272 40.96c5.12 8.86784 13.78304 15.68768 24.9856 18.67776 2.78528 0.75776 7.3728 0.49152 10.15808 1.2288 7.3728 0.47104 13.7216-0.8192 20.80768-4.9152 19.49696-11.264 26.25536-36.4544 14.99136-55.95136zM606.43328 214.79424l-59.2896-24.8832-8.11008 63.7952zM490.94656 293.29408s-1.024-1.76128 0.75776-2.78528l0.73728-2.80576-1.49504 5.59104zM163.84 445.44h225.28c12.288 0 20.48-8.192 20.48-20.48s-8.192-20.48-20.48-20.48H163.84c-12.288 0-20.48 8.192-20.48 20.48s8.192 20.48 20.48 20.48zM163.84 322.56h225.28c12.288 0 20.48-8.192 20.48-20.48s-8.192-20.48-20.48-20.48H163.84c-12.288 0-20.48 8.192-20.48 20.48s8.192 20.48 20.48 20.48z"  horiz-adv-x="1024" />

    
    <glyph glyph-name="zhuce" unicode="&#58973;" d="M512 384m-512 0a512 512 0 1 1 1024 0 512 512 0 1 1-1024 0ZM759.9 85.9H260.7c-10.6 0-19.3 7.5-19.3 9.1V659.3c0 16.6 8.7 24.1 19.3 24.1h499.2c10.6 0 19.3-7.5 19.3-16.6v-564.3c0-9.1-8.7-16.6-19.3-16.6zM355.9 451c-2.2 0-4.4 0.7-6.1 2.2l-38.4 33c-3.4 2.9-3.4 7.6 0 10.5 3.4 2.9 8.9 2.9 12.3 0L356 469l76.9 65.9c3.4 2.9 8.9 2.9 12.3 0 3.4-2.9 3.4-7.6 0-10.5l-83-71.2c-1.8-1.5-4-2.2-6.3-2.2zM717.7 461.2h-217c-5.2 0-9.5 4.3-9.5 9.5v2.4c0 5.2 4.3 9.5 9.5 9.5h216.9c5.2 0 9.5-4.3 9.5-9.5v-2.4c0.1-5.2-4.2-9.5-9.4-9.5zM355.9 342.4c-2.2 0-4.4 0.7-6.1 2.2l-38.4 33c-3.4 2.9-3.4 7.6 0 10.5 3.4 2.9 8.9 2.9 12.3 0l32.3-27.7 76.9 65.9c3.4 2.9 8.9 2.9 12.3 0 3.4-2.9 3.4-7.6 0-10.5l-83-71.2c-1.8-1.4-4-2.2-6.3-2.2zM717.7 353.5h-217c-5.2 0-9.5 4.3-9.5 9.5v2.4c0 5.2 4.3 9.5 9.5 9.5h216.9c5.2 0 9.5-4.3 9.5-9.5v-2.4c0.1-5.2-4.2-9.5-9.4-9.5zM355.9 224.5c-2.2 0-4.4 0.7-6.1 2.2l-38.4 33c-3.4 2.9-3.4 7.6 0 10.5 3.4 2.9 8.9 2.9 12.3 0l32.3-27.7 76.9 65.9c3.4 2.9 8.9 2.9 12.3 0 3.4-2.9 3.4-7.6 0-10.5l-83-71.2c-1.8-1.5-4-2.2-6.3-2.2zM717.7 238.1h-217c-5.2 0-9.5 4.3-9.5 9.5V250c0 5.2 4.3 9.5 9.5 9.5h216.9c5.2 0 9.5-4.3 9.5-9.5v-2.4c0.1-5.2-4.2-9.5-9.4-9.5z"  horiz-adv-x="1024" />

    
    <glyph glyph-name="chakangengduojiantou" unicode="&#58919;" d="M518.09-63.86a447.11 447.11 0 0 0-174 858.86 447.11 447.11 0 0 0 348-823.72 444.22 444.22 0 0 0-174-35.14z m0 844c-218.91 0-397-178.09-397-397s178.09-397 397-397 397 178.09 397 397-178.09 397-397 397zM560.09 114.9a25 25 0 0 0-17.84 42.51L760.5 379.83l-218.2 221a25 25 0 1 0 35.58 35.13l235.49-238.51a25 25 0 0 0 0.05-35.08l-235.49-240a24.92 24.92 0 0 0-17.84-7.47zM795.58 354.13h-555a25 25 0 0 0 0 50h555a25 25 0 1 0 0-50z"  horiz-adv-x="1024" />

    
    <glyph glyph-name="plus-circle" unicode="&#59265;" d="M696 416H544V568c0 4.4-3.6 8-8 8h-48c-4.4 0-8-3.6-8-8v-152H328c-4.4 0-8-3.6-8-8v-48c0-4.4 3.6-8 8-8h152v-152c0-4.4 3.6-8 8-8h48c4.4 0 8 3.6 8 8V352h152c4.4 0 8 3.6 8 8v48c0 4.4-3.6 8-8 8zM512 832C264.6 832 64 631.4 64 384s200.6-448 448-448 448 200.6 448 448S759.4 832 512 832z m0-820c-205.4 0-372 166.6-372 372s166.6 372 372 372 372-166.6 372-372-166.6-372-372-372z"  horiz-adv-x="1024" />

    
    <glyph glyph-name="sound" unicode="&#59354;" d="M625.9 781c-5.9 0-11.9-1.6-17.4-5.3L254 544H90c-8.8 0-16-7.2-16-16v-288c0-8.8 7.2-16 16-16h164l354.5-231.7c5.5-3.6 11.6-5.3 17.4-5.3 16.7 0 32.1 13.3 32.1 32.1V748.9c0 18.8-15.4 32.1-32.1 32.1zM586 93L293.4 284.3l-18 11.7H146V472h129.4l17.9 11.7L586 675v-582zM934 420H806c-8.8 0-16-7.2-16-16v-40c0-8.8 7.2-16 16-16h128c8.8 0 16 7.2 16 16v40c0 8.8-7.2 16-16 16zM892.1 158.2l-110.3 63.7c-2.5 1.4-5.2 2.1-7.9 2.1-5.5 0-10.9-2.9-13.8-8l-19.9-34.5c-4.4-7.6-1.8-17.4 5.8-21.8L856.3 96c2.5-1.4 5.2-2.1 7.9-2.1 5.5 0 10.9 2.9 13.8 8l19.9 34.5c4.4 7.6 1.7 17.4-5.8 21.8zM760 552c2.9-5.1 8.3-8 13.8-8 2.7 0 5.4 0.7 7.9 2.1L892 609.8c7.6 4.4 10.2 14.2 5.8 21.8L878 666c-2.9 5.1-8.3 8-13.8 8-2.7 0-5.4-0.7-7.9-2.1L746 608.2c-7.6-4.4-10.2-14.2-5.8-21.8L760 552z"  horiz-adv-x="1024" />

    
    <glyph glyph-name="shipin" unicode="&#58890;" d="M1182.022971 896H222.45844A222.70927 222.70927 0 0 1 0 673.54156V94.45844a222.70927 222.70927 0 0 1 222.45844-222.45844h959.564531a222.70927 222.70927 0 0 1 222.45844 222.45844V673.56943A222.70927 222.70927 0 0 1 1182.022971 896z m132.298949-222.45844V94.45844a132.46617 132.46617 0 0 0-132.298949-132.298949H222.45844a132.46617 132.46617 0 0 0-132.298949 132.298949V673.56943a132.46617 132.46617 0 0 0 132.298949 132.29895h959.564531a132.46617 132.46617 0 0 0 132.298949-132.29895zM871.773992 465.631267l-250.523543 144.645365a94.367862 94.367862 0 0 1-141.551794-81.714877v-289.20712a94.172772 94.172772 0 0 1 141.551794-81.714877l250.523543 144.645365a94.367862 94.367862 0 0 1 0 163.457624z"  horiz-adv-x="1404" />

    
    <glyph glyph-name="anjianbaojingqi" unicode="&#58901;" d="M780.288 763.904H261.12c-66.048 0-117.76-52.224-117.76-117.76v-519.168c0-66.048 52.224-117.76 117.76-117.76h519.168c66.048 0 117.76 52.224 117.76 117.76V646.144c0 66.048-51.712 117.76-117.76 117.76z m70.656-636.928c0-39.936-30.72-70.656-70.656-70.656H261.12c-39.936 0-70.656 30.72-70.656 70.656V646.144C189.952 686.08 220.672 716.8 261.12 716.8h519.168c39.936 0 70.656-30.72 70.656-70.656v-519.168zM296.96 195.584c-13.824 0-25.088 11.264-25.088 25.088s11.264 25.088 25.088 25.088h447.488c13.824 0 25.088-11.264 25.088-25.088s-11.264-24.576-25.088-25.088H296.96z m370.176 145.92c-13.824 0-25.088 11.264-25.088 25.088s11.264 25.088 25.088 25.088h76.8c13.824 0 25.088-11.264 25.088-25.088s-11.264-25.088-25.088-25.088h-76.8z m-185.344 0c-13.824 0-25.088 11.264-25.088 25.088s11.264 25.088 25.088 25.088h77.312c13.824 0 25.088-11.264 25.088-25.088s-11.264-25.088-25.088-25.088H481.792z m-184.832 0c-13.824 0-25.088 11.264-25.088 25.088s11.264 25.088 25.088 25.088h76.8c13.824 0 25.088-11.264 25.088-25.088s-11.264-25.088-25.088-25.088H296.96z m370.176 146.432c-13.824 0-25.088 11.264-25.088 25.088s11.264 25.088 25.088 25.088h76.8c13.824 0 25.088-11.264 25.088-25.088s-11.264-25.088-25.088-25.088h-76.8z m-185.344 0c-13.824 0-25.088 11.264-25.088 25.088s11.264 25.088 25.088 25.088h77.312c13.824 0 25.088-11.264 25.088-25.088s-11.264-25.088-25.088-25.088H481.792z m-184.832 0c-13.824 0-25.088 11.264-25.088 25.088S283.136 537.6 296.96 537.6h76.8c13.824 0 25.088-11.264 25.088-25.088s-11.264-25.088-25.088-25.088H296.96z"  horiz-adv-x="1024" />

    
    <glyph glyph-name="gerenzhongxinwoderenwubiaozhuntouxianxing" unicode="&#58946;" d="M382.35 396.089a227.556 227.556 0 1 0 250.027-6.087C794.112 334.137 910.222 180.622 910.222 0a28.444 28.444 0 0 0-56.889 0c0 196.38-159.175 355.556-355.555 355.556S142.222 196.38 142.222 0a28.444 28.444 0 0 0-56.889 0c0 187.733 125.412 346.169 297.017 396.089zM512 412.444a170.667 170.667 0 1 1 0 341.334 170.667 170.667 0 0 1 0-341.334z"  horiz-adv-x="1024" />

    
    <glyph glyph-name="lihe1" unicode="&#58937;" d="M968.533333 469.333333V588.8c0 21.333333-8.533333 38.4-21.333333 55.466667s-34.133333 25.6-55.466667 25.6h-51.2l8.533334 12.8c17.066667 25.6 21.333333 51.2 21.333333 72.533333 0 17.066667-8.533333 42.666667-42.666667 68.266667-25.6 17.066667-64 21.333333-102.4 12.8-68.266667-17.066667-149.333333-76.8-200.533333-145.066667l-12.8-12.8-8.533333 12.8c-51.2 72.533333-132.266667 128-200.533334 145.066667-42.666667 8.533333-76.8 4.266667-102.4-12.8-34.133333-21.333333-42.666667-51.2-42.666666-68.266667 0-21.333333 4.266667-46.933333 21.333333-72.533333l8.533333-17.066667H132.266667c-42.666667 0-81.066667-34.133333-81.066667-81.066667V469.333333c0-34.133333 21.333333-64 55.466667-76.8l12.8-4.266666-4.266667-8.533334c-4.266667-8.533333-4.266667-17.066667-4.266667-25.6v-349.866666c0-42.666667 34.133333-81.066667 81.066667-81.066667h640c42.666667 0 81.066667 34.133333 81.066667 81.066667v349.866666c0 8.533333 0 17.066667-4.266667 25.6l-4.266667 12.8 12.8 4.266667c29.866667 8.533333 51.2 38.4 51.2 72.533333zM196.266667 750.933333c0 8.533333 4.266667 21.333333 25.6 34.133334 17.066667 12.8 42.666667 12.8 68.266666 8.533333C341.333333 780.8 405.333333 738.133333 452.266667 682.666667l17.066666-17.066667H243.2l-4.266667 4.266667c-12.8 12.8-42.666667 51.2-42.666666 81.066666z m-64-320c-21.333333 0-38.4 17.066667-38.4 38.4V584.533333c0 21.333333 17.066667 38.4 38.4 38.4h358.4v-192H132.266667z m358.4-465.066666h-298.666667c-21.333333 0-38.4 17.066667-38.4 38.4v349.866666c0 21.333333 17.066667 38.4 38.4 38.4h298.666667v-426.666666zM571.733333 682.666667c46.933333 55.466667 110.933333 98.133333 162.133334 110.933333 29.866667 8.533333 51.2 4.266667 68.266666-8.533333 17.066667-12.8 21.333333-25.6 25.6-34.133334 4.266667-34.133333-29.866667-72.533333-42.666666-81.066666l-4.266667-4.266667H554.666667l17.066666 17.066667z m298.666667-678.4c0-21.333333-17.066667-38.4-38.4-38.4h-298.666667v422.4h298.666667c21.333333 0 38.4-17.066667 38.4-38.4v-345.6z m21.333333 426.666666h-358.4V622.933333h358.4c21.333333 0 38.4-17.066667 38.4-38.4V469.333333c0-21.333333-17.066667-38.4-38.4-38.4z"  horiz-adv-x="1024" />

    
    <glyph glyph-name="gouwuche1-copy" unicode="&#58892;" d="M357.44 129.60000000000002q18.24 0 34.56-6.72t28.8-18.72 19.2-28.32 6.72-34.56-6.72-34.56-19.2-28.32-28.8-19.2-34.56-7.2q-19.2 0-35.04 7.2t-28.32 19.2-19.2 28.32-6.72 34.56 6.72 34.56 19.2 28.32 28.32 18.72 35.04 6.72zM756.8 127.67999999999995q18.24 0 35.04-6.72t28.8-18.72 19.2-28.32 7.2-34.56-7.2-34.56-19.2-28.32-28.8-19.2-35.04-7.2-34.56 7.2-28.32 19.2-19.2 28.32-7.2 34.56 7.2 34.56 19.2 28.32 28.32 18.72 34.56 6.72zM918.08 672.96q26.88 0 41.76-7.2t21.12-17.76 5.76-22.56-3.36-20.64-12-35.52-20.64-59.04-22.56-63.84-16.8-49.92q-12.48-38.4-31.68-53.28t-47.04-14.88l-32.64 0-62.4 0-81.6 0-89.28 0-238.08 0 14.4-86.4 483.84 0q46.08 0 46.08-39.36 0-19.2-9.12-33.12t-36-13.92l-46.08 0-89.28 0-110.4 0-112.32 0-92.16 0-52.8 0q-19.2 0-32.16 8.64t-21.6 22.56-13.92 30.24-8.16 30.72q-0.96 5.76-5.28 27.84t-10.56 55.2-13.92 73.92-15.36 82.08q-18.24 96.96-41.28 216l-72 0q-14.4 0-24 7.2t-15.84 17.28-8.64 21.6-2.4 21.12q0 19.2 12.96 31.68t35.04 12.48l21.12 0 19.2 0 24 0 32.64 0q19.2 0 30.72-5.76t18.24-14.4 9.6-18.24 4.8-16.32q1.92-7.68 3.84-21.6t3.84-28.32q2.88-17.28 5.76-36.48l656.64 0z"  horiz-adv-x="1024" />

    


  </font>
</defs>
</svg>
